<?xml version="1.0" encoding="UTF-8" standalone="no"?>
<svg width="32px" height="32px" viewBox="0 0 32 32" version="1.1" xmlns="http://www.w3.org/2000/svg" xmlns:xlink="http://www.w3.org/1999/xlink">
    <!-- Generator: Sketch 44.1 (41455) - http://www.bohemiancoding.com/sketch -->
    <title>Arrow 4</title>
    <desc>Created with Sketch.</desc>
    <defs></defs>
    <g id="Page-2-Copy" stroke="none" stroke-width="1" fill="none" fill-rule="evenodd">
        <g id="16" stroke="#979797" fill-rule="nonzero">
            <path d="M11,18 C11,18.5522847 11.4477153,19 12,19 L20,19 C20.5522847,19 21,18.5522847 21,18 C21,17.4477153 20.5522847,17 20,17 L12,17 L13,18 L13,10 C13,9.44771525 12.5522847,9 12,9 C11.4477153,9 11,9.44771525 11,10 L11,18 Z" id="Rectangle-349" stroke="none" fill="#2A2630" transform="translate(16.000000, 14.000000) rotate(-45.000000) translate(-16.000000, -14.000000) "></path>
            <path d="M32,16 C32,24.836556 24.836556,32 16,32 C7.163444,32 0,24.836556 0,16 C0,7.163444 7.163444,0 16,0 C24.836556,0 32,7.163444 32,16 Z M2,16 C2,23.7319865 8.2680135,30 16,30 C23.7319865,30 30,23.7319865 30,16 C30,8.2680135 23.7319865,2 16,2 C8.2680135,2 2,8.2680135 2,16 Z" id="Oval-1" stroke="none" fill="#95909E"></path>
        </g>
    </g>
</svg>